<svg width="30" height="28" viewBox="0 0 30 28" fill="none" xmlns="http://www.w3.org/2000/svg">
<path d="M20.0455 6.51448C20.0455 8.9993 17.8103 11.3124 15 11.3124C12.1897 11.3124 9.95455 8.9993 9.95455 6.51448C9.95455 3.983 12.2363 1.5 15 1.5C17.7637 1.5 20.0455 3.983 20.0455 6.51448ZM28.25 21.1668C28.25 22.4172 27.5069 23.7115 25.4067 24.7486C23.2813 25.7981 19.8936 26.5002 15 26.5002C10.1064 26.5002 6.71874 25.7981 4.59333 24.7486C2.49315 23.7115 1.75 22.4172 1.75 21.1668C1.75 20.6177 1.99621 20.0194 2.59424 19.3909C3.19717 18.7574 4.11688 18.1413 5.32987 17.6022C7.75333 16.5251 11.1714 15.8334 15 15.8334C18.8286 15.8334 22.2467 16.5251 24.6701 17.6022C25.8831 18.1413 26.8028 18.7574 27.4058 19.3909C28.0038 20.0194 28.25 20.6177 28.25 21.1668Z" stroke="black" stroke-width="2"/>
</svg>
