<svg width="25" height="21" viewBox="0 0 25 21" fill="none" xmlns="http://www.w3.org/2000/svg">
<path d="M2.83333 20.1666C2.16875 20.1666 1.59982 19.93 1.12656 19.4567C0.653296 18.9834 0.416664 18.4145 0.416664 17.7499V3.24992C0.416664 2.58534 0.653296 2.01641 1.12656 1.54315C1.59982 1.06988 2.16875 0.833252 2.83333 0.833252H22.1667C22.8312 0.833252 23.4002 1.06988 23.8734 1.54315C24.3467 2.01641 24.5833 2.58534 24.5833 3.24992V17.7499C24.5833 18.4145 24.3467 18.9834 23.8734 19.4567C23.4002 19.93 22.8312 20.1666 22.1667 20.1666H2.83333ZM12.5 11.7083L2.83333 5.66658V17.7499H22.1667V5.66658L12.5 11.7083ZM12.5 9.29158L22.1667 3.24992H2.83333L12.5 9.29158ZM2.83333 5.66658V3.24992V17.7499V5.66658Z" fill="#1D1B20"/>
</svg>
